<svg width="534" height="100" viewBox="0 0 534 100" fill="none" xmlns="http://www.w3.org/2000/svg">
<path d="M14.9651 77.5944V48.2187H33.9237C37.8043 48.2187 39.6882 50.328 41.0217 54.6455L48.2255 77.5944H63.748L54.7661 49.2134C52.9952 43.4497 51.33 40.6772 46.0101 40.3457C53.1081 37.9048 59.8674 30.5891 59.8674 21.0582C59.8674 8.86773 49.3333 0 36.0333 0H0V77.5944H14.9651ZM14.9651 13.2981H31.5953C40.4643 13.2981 44.9023 16.7337 44.9023 23.9365C44.9023 31.1393 40.4643 35.1323 31.5953 35.1323H14.9651V13.2981Z" fill="#001619"/>
<path d="M94.0804 77.5944V46.7795C94.0804 39.0194 99.4003 32.6984 106.054 32.6984H106.943C112.489 32.6984 115.699 36.5785 115.699 43.7813V77.5944H130.114V42.1235C130.114 29.933 124.123 21.0653 110.823 21.0653C103.62 21.0653 97.4106 24.7266 94.0804 30.2646V0H79.6656V77.5944H94.0804Z" fill="#001619"/>
<path d="M163.868 78.7019C171.072 78.7019 176.949 75.5979 180.28 70.8289C180.392 73.3757 180.611 75.9295 180.943 77.5873H194.468C193.911 73.7072 193.911 68.7196 193.911 65.3968V41.0159C193.911 28.0494 184.485 21.0653 170.627 21.0653C156.77 21.0653 147.901 28.9383 146.793 39.358H161.208C161.54 36.1411 164.757 32.7055 170.19 32.7055H171.079C176.512 32.7055 179.948 36.5855 179.948 41.5732V42.9065L165.978 44.127C154.999 45.0159 145.693 50.448 145.693 62.4198C145.693 72.3951 153.898 78.7161 163.875 78.7161L163.868 78.7019ZM166.754 67.0617C162.873 67.0617 159.882 64.8466 159.882 61.4109C159.882 56.8677 164.313 54.9841 167.974 54.6526L179.948 53.4321V54.9841C179.948 62.187 174.071 67.0688 167.643 67.0688H166.754V67.0617Z" fill="#001619"/>
<path d="M224.97 70.3915C227.186 74.2716 233.176 78.709 240.937 78.709C257.01 78.709 265.547 64.8536 265.547 49.8907C265.547 34.9277 257.01 21.0723 240.937 21.0723C233.176 21.0723 227.193 25.5097 224.97 29.3827V22.1799H210.555V100H224.97V70.3915ZM237.607 67.0617C230.953 67.0617 224.97 60.4092 224.97 49.8765C224.97 39.3439 230.96 32.6914 237.607 32.6914H238.496C245.7 32.6914 251.133 39.3439 251.133 49.8765C251.133 60.4092 245.7 67.0617 238.496 67.0617H237.607Z" fill="#001619"/>
<path d="M300.762 78.7019C315.727 78.7019 323.376 71.0547 323.376 61.6296C323.376 52.8748 318.5 47.7743 307.853 45.1146L300.424 43.231C295.88 42.1235 293.107 40.5714 293.107 37.5803C293.107 33.7002 296.43 32.1482 300.311 32.1482H301.2C306.188 32.1482 308.961 35.1393 309.511 39.9083H323.926C323.926 28.2681 315.614 21.0653 301.2 21.0653C286.785 21.0653 278.918 28.1623 278.918 38.1376C278.918 47.1182 284.464 51.993 296.105 54.8783L303.309 56.649C307.303 57.6437 309.187 59.3087 309.187 62.194C309.187 65.5168 306.082 67.6261 301.651 67.6261H300.762C295.216 67.6261 291.449 64.3034 291.449 59.3086H276.702C276.702 71.4991 285.797 78.709 300.762 78.709V78.7019Z" fill="#001619"/>
<path d="M364.687 78.702C381.317 78.702 392.401 66.5115 392.401 49.8836C392.401 33.2557 381.317 21.0653 364.687 21.0653C348.056 21.0653 336.972 33.2557 336.972 49.8836C336.972 66.5115 348.056 78.702 364.687 78.702ZM364.242 67.0617C356.481 67.0617 351.493 60.7407 351.493 49.8765C351.493 39.0123 356.481 32.6914 364.242 32.6914H365.131C372.892 32.6914 377.881 39.0123 377.881 49.8765C377.881 60.7407 372.892 67.0617 365.131 67.0617H364.242Z" fill="#001619"/>
<path d="M429.422 78.7019C437.184 78.7019 443.167 74.2646 445.389 70.3845V77.5873H459.804V0H445.389V29.3757C443.174 25.4956 437.184 21.0653 429.422 21.0653C413.35 21.0653 404.812 34.9206 404.812 49.8836C404.812 64.8466 413.35 78.7019 429.422 78.7019ZM431.864 67.0617C424.66 67.0617 419.227 60.2963 419.227 49.7707C419.227 39.2452 424.66 32.6984 431.864 32.6984H432.753C439.406 32.6984 445.389 39.351 445.389 49.8836C445.389 60.4162 439.399 67.0688 432.753 67.0688H431.864V67.0617Z" fill="#001619"/>
<path d="M504.34 55.9788L488.041 22.1658H471.855L497.354 74.0459L493.693 83.5767C492.472 86.6808 491.809 87.5697 487.928 87.5697H475.178V99.9859H491.922C500.233 99.9859 503.338 97.3263 505.892 91.1182L533.388 22.1658H517.421L504.34 55.9788Z" fill="#001619"/>
</svg>
