<svg xmlns="http://www.w3.org/2000/svg" xml:space="preserve" width="300" height="86"><path d="M65.55 36.01c-.423-.184-.953-.29-1.989-.29h-3.792v4.827h3.58c1.087 0 1.725-.133 2.229-.37.85-.423 1.274-1.17 1.274-2.175 0-.904-.479-1.619-1.302-1.992m-.926-7.241c-.4-.184-.877-.291-1.646-.291h-3.209v4.563h3.024c.954 0 1.538-.16 1.961-.4.691-.395 1.036-1.06 1.036-1.909 0-.875-.399-1.59-1.166-1.963m-7.853 14.484v-17.48h6.418c1.38 0 2.28.212 3.025.556 1.776.85 2.573 2.467 2.573 3.952 0 1.673-.692 2.811-2.097 3.662v.053c2.015.449 3.236 1.854 3.236 3.978 0 2.36-1.431 4.164-3.872 4.908-.876.264-1.83.371-3.343.371h-5.94zM87.417 25.773h2.997v17.48h-2.997zM109.179 25.773h2.994v17.48h-2.994zM121.854 25.614c1.884 0 3.794.452 4.852.981l-.05 2.865c-1.513-.742-3.052-1.222-4.881-1.222-1.642 0-3.05.507-3.05 1.886 0 3.58 8.994 2.148 8.994 8.061 0 3.264-2.76 5.329-6.767 5.329-2.729 0-4.613-.769-5.913-1.56l1.244-2.441c1.064.664 2.763 1.379 4.776 1.379 1.805 0 3.476-.692 3.476-2.281 0-3.743-8.912-2.097-8.912-8.064 0-3.184 2.544-4.933 6.231-4.933M141.907 25.773h2.997v17.48h-2.997V35.72h-8.489v7.533h-2.997v-17.48h2.997v7.162h8.489zM63.389 46.323c1.909 0 3.367.374 4.855 1.034l-.904 2.547c-.849-.396-1.964-.873-3.631-.873-3.317 0-5.384 2.81-5.384 6.231 0 3.451 1.934 6.26 5.384 6.26 1.667 0 2.782-.475 3.631-.877l.904 2.55c-1.488.661-2.946 1.032-4.855 1.032-5.227 0-8.222-3.659-8.222-8.911 0-4.906 2.995-8.993 8.222-8.993M128.969 46.323c1.91 0 3.368.374 4.852 1.034l-.9 2.547c-.85-.396-1.965-.873-3.636-.873-3.316 0-5.384 2.81-5.384 6.231 0 3.451 1.937 6.26 5.384 6.26 1.671 0 2.786-.475 3.636-.877l.9 2.55c-1.484.661-2.942 1.032-4.852 1.032-5.228 0-8.225-3.659-8.225-8.911 0-4.906 2.997-8.993 8.225-8.993M82.217 55.261c0-3.818-2.172-6.258-5.118-6.258-2.943 0-5.12 2.44-5.12 6.285 0 3.823 2.177 6.26 5.12 6.26 2.947 0 5.118-2.437 5.118-6.287m3.159-.055c0 5.255-3.344 9.02-8.276 9.02-4.985 0-8.275-3.634-8.275-8.883 0-5.252 3.341-9.02 8.275-9.02 4.989 0 8.276 3.636 8.276 8.883M87.402 57.382V46.483h2.997V57.49c0 2.915 1.566 4.005 4.058 4.005 2.547 0 4.06-1.09 4.06-4.005V46.483h2.997v10.899c0 4.75-2.708 6.844-7.107 6.844-4.326 0-7.005-2.094-7.005-6.844M107.147 51.233h-.053c.053.581.079 1.51.079 2.334v10.394h-2.997V46.485h3.237l8.112 11.908h.055c-.055-.584-.079-1.513-.079-2.337v-9.571h2.995v17.476h-2.65l-8.699-12.728zM136.176 46.483h2.992v17.48h-2.992zM144.904 61.255h6.842v2.708h-9.839v-17.48h2.997zM92.699 25.776v2.732h5.594v14.745h2.997V28.508h5.597v-2.732zM78.074 28.481H74.97v5.306h2.97c2.15 0 3.157-1.115 3.157-2.707 0-1.432-.928-2.599-3.023-2.599m3.949 14.772c-2.544-5.276-3.208-6.763-4.269-6.763H74.97v6.763h-2.995V25.777h5.912c4.507 0 6.233 2.387 6.233 5.038 0 2.334-1.352 3.899-3.236 4.479v.029c.794.452 1.642 2.096 4.56 7.93h-3.421z" style="fill:#004280" transform="matrix(2.078 0 0 2.078 -15.348 -50.231)"/><path d="M27.379 34.17c0 5.521-4.476 9.997-9.997 9.997-5.52 0-9.996-4.476-9.996-9.997s4.476-9.997 9.996-9.997c5.521.001 9.997 4.476 9.997 9.997M48.772 34.17c0 5.521-4.476 9.997-9.997 9.997-5.52 0-9.996-4.476-9.996-9.997s4.476-9.997 9.996-9.997c5.521.001 9.997 4.476 9.997 9.997M27.379 55.563c0 5.522-4.476 9.996-9.997 9.996-5.52 0-9.996-4.474-9.996-9.996s4.476-9.996 9.996-9.996c5.521 0 9.997 4.474 9.997 9.996M48.772 55.563c0 5.522-4.476 9.996-9.997 9.996-5.52 0-9.996-4.474-9.996-9.996s4.476-9.996 9.996-9.996c5.521 0 9.997 4.474 9.997 9.996" style="fill:#00a5e6" transform="matrix(2.078 0 0 2.078 -15.348 -50.231)"/></svg>