<?xml version="1.0" encoding="utf-8"?>
<!-- Generator: Adobe Illustrator 15.1.0, SVG Export Plug-In . SVG Version: 6.00 Build 0)  -->
<!DOCTYPE svg PUBLIC "-//W3C//DTD SVG 1.1//EN" "http://www.w3.org/Graphics/SVG/1.1/DTD/svg11.dtd">
<svg version="1.1" id="Warstwa_1" xmlns="http://www.w3.org/2000/svg" xmlns:xlink="http://www.w3.org/1999/xlink" x="0px" y="0px"
	 width="501.001px" height="135.363px" viewBox="0 0 501.001 135.363" enable-background="new 0 0 501.001 135.363"
	 xml:space="preserve">
<path fill-rule="evenodd" clip-rule="evenodd" fill="#A61E2B" d="M16.276,34.775c23.343-12.382,55.677-23.849,102.897-13.593v85.567
	H16.276V34.775z"/>
<path fill-rule="evenodd" clip-rule="evenodd" fill="#A61E2B" d="M132.897,7.307C88.959-8.989,39.65,3.117,3.709,32.259l0.06,4.363
	C41.738,12.675,84.524,3.437,132.333,19.267L132.897,7.307z"/>
<path fill-rule="evenodd" clip-rule="evenodd" fill="#FFFFFF" d="M104.987,26.769c-23.017-4.727-50.194,0.269-72.612,7.853
	l0.191,7.127l72.421,0.169V26.769z"/>
<rect x="32.463" y="50.186" fill-rule="evenodd" clip-rule="evenodd" fill="#FFFFFF" width="14.189" height="49.374"/>
<rect x="51.958" y="50.086" fill-rule="evenodd" clip-rule="evenodd" fill="#FFFFFF" width="14.189" height="49.375"/>
<rect x="71.264" y="50.186" fill-rule="evenodd" clip-rule="evenodd" fill="#FFFFFF" width="14.189" height="49.374"/>
<rect x="90.758" y="50.086" fill-rule="evenodd" clip-rule="evenodd" fill="#FFFFFF" width="14.189" height="49.375"/>
<rect x="10.229" y="109.963" fill-rule="evenodd" clip-rule="evenodd" fill="#A61E2B" width="114.989" height="6.574"/>
<rect x="5.379" y="119.376" fill-rule="evenodd" clip-rule="evenodd" fill="#A61E2B" width="124.69" height="6.574"/>
<rect y="128.789" fill-rule="evenodd" clip-rule="evenodd" fill="#A61E2B" width="135.449" height="6.574"/>
<rect x="173.344" y="21.453" fill-rule="evenodd" clip-rule="evenodd" fill="#000003" width="2.927" height="113.656"/>
<path fill="#000003" d="M212.476,53.302c0.008,1.586,0.102,2.984,0.292,4.192c0.196,1.215,0.465,2.271,0.808,3.173
	c0.342,0.903,0.743,1.688,1.201,2.358c0.466,0.669,0.96,1.252,1.499,1.761c0.786,0.728,1.623,1.295,2.503,1.717
	c0.888,0.423,1.754,0.735,2.599,0.932c0.852,0.196,1.616,0.32,2.3,0.378c0.677,0.058,1.216,0.08,1.594,0.073
	c0.866,0.015,1.791-0.058,2.78-0.218c0.99-0.153,2.009-0.466,3.057-0.932c1.055-0.466,2.103-1.165,3.158-2.082
	c0.867-0.779,1.572-1.674,2.104-2.686c0.531-1.004,0.939-2.089,1.216-3.239c0.276-1.15,0.466-2.329,0.561-3.537
	c0.102-1.208,0.145-2.409,0.138-3.595v-4.673c0-1.354,0-2.511,0-3.464c0-0.954,0-1.754,0.007-2.395c0-0.647,0.007-1.186,0.015-1.616
	c0.007-0.422,0.014-0.793,0.021-1.099c0.015-0.299,0.029-0.59,0.044-0.859c0.029-0.757,0.167-1.332,0.4-1.718
	c0.233-0.393,0.641-0.647,1.216-0.771c0.254-0.043,0.465-0.08,0.626-0.102c0.167-0.022,0.32-0.029,0.465-0.029
	c0.095,0,0.175-0.022,0.24-0.065c0.073-0.044,0.109-0.109,0.109-0.197c0-0.131-0.058-0.218-0.167-0.276
	c-0.117-0.051-0.291-0.073-0.531-0.073c-0.334,0-0.691,0.007-1.084,0.021c-0.386,0.007-0.764,0.029-1.128,0.044
	c-0.364,0.015-0.677,0.029-0.939,0.043c-0.262,0.015-0.43,0.022-0.517,0.022c-0.073,0-0.254-0.007-0.553-0.022
	s-0.677-0.029-1.121-0.043c-0.444-0.015-0.924-0.037-1.441-0.044c-0.51-0.014-1.012-0.021-1.514-0.021
	c-0.24,0-0.415,0.021-0.531,0.073c-0.109,0.058-0.167,0.146-0.167,0.276c0.007,0.087,0.044,0.153,0.109,0.197
	c0.073,0.043,0.153,0.065,0.24,0.065c0.138,0,0.298,0,0.48,0.014c0.189,0.007,0.371,0.022,0.553,0.044
	c0.182,0.015,0.335,0.043,0.451,0.073c0.473,0.095,0.845,0.248,1.106,0.451c0.27,0.197,0.451,0.466,0.568,0.801
	c0.109,0.328,0.182,0.742,0.204,1.237c0.022,0.269,0.037,0.56,0.044,0.859c0.015,0.305,0.022,0.677,0.029,1.099
	c0,0.43,0.007,0.968,0.007,1.616c0.007,0.641,0.007,1.441,0.007,2.395c0,0.953,0,2.111,0,3.464v5.459
	c0.007,1.499-0.065,2.911-0.211,4.221s-0.4,2.511-0.771,3.595c-0.371,1.092-0.888,2.053-1.55,2.882
	c-0.531,0.633-1.157,1.179-1.885,1.652c-0.728,0.465-1.514,0.83-2.359,1.092c-0.844,0.262-1.717,0.4-2.612,0.4
	c-0.823,0.007-1.609-0.051-2.344-0.175c-0.728-0.124-1.449-0.364-2.14-0.713c-0.699-0.35-1.405-0.852-2.111-1.514
	c-0.473-0.444-0.91-0.961-1.303-1.558c-0.4-0.597-0.743-1.311-1.041-2.147c-0.291-0.837-0.524-1.834-0.684-2.999
	c-0.16-1.157-0.248-2.518-0.248-4.083v-6.114c0-1.354,0-2.511,0-3.464c0-0.954,0-1.754,0.007-2.395c0-0.647,0.007-1.186,0.015-1.616
	c0-0.422,0.015-0.793,0.022-1.099c0.014-0.299,0.029-0.59,0.043-0.859c0.029-0.765,0.167-1.347,0.4-1.754
	c0.233-0.407,0.641-0.655,1.215-0.735c0.255-0.043,0.466-0.08,0.626-0.102c0.167-0.022,0.32-0.029,0.466-0.029
	c0.095,0,0.175-0.022,0.24-0.065c0.073-0.044,0.109-0.109,0.109-0.197c0-0.131-0.058-0.218-0.167-0.276
	c-0.116-0.051-0.291-0.073-0.531-0.073c-0.335,0-0.728,0.007-1.172,0.021c-0.444,0.007-0.888,0.029-1.332,0.044
	c-0.444,0.015-0.83,0.029-1.165,0.043c-0.328,0.015-0.546,0.022-0.655,0.022c-0.109,0-0.327-0.007-0.677-0.022
	c-0.342-0.015-0.757-0.029-1.245-0.043c-0.487-0.015-1.004-0.037-1.543-0.044c-0.539-0.014-1.055-0.021-1.558-0.021
	c-0.24,0-0.415,0.021-0.531,0.073c-0.109,0.058-0.167,0.146-0.167,0.276c0.008,0.087,0.044,0.153,0.109,0.197
	c0.073,0.043,0.153,0.065,0.24,0.065c0.138,0,0.298,0,0.48,0.014c0.189,0.007,0.371,0.022,0.553,0.044
	c0.182,0.015,0.328,0.043,0.451,0.073c0.473,0.095,0.845,0.248,1.106,0.451c0.262,0.197,0.452,0.466,0.568,0.801
	c0.109,0.328,0.182,0.742,0.204,1.237c0.014,0.269,0.029,0.56,0.043,0.859c0.007,0.305,0.022,0.677,0.022,1.099
	c0.007,0.43,0.014,0.968,0.014,1.616c0.007,0.641,0.007,1.441,0.007,2.395c0,0.953,0,2.111,0,3.464V53.302z"/>
<path fill="#000003" d="M251.866,40.419c0.357,0.4,0.91,1.019,1.66,1.856c0.742,0.83,1.638,1.813,2.664,2.955
	c1.025,1.135,2.146,2.365,3.354,3.683c1.201,1.318,2.445,2.664,3.72,4.04c0.938,1.004,1.906,2.038,2.918,3.101
	c1.005,1.063,1.995,2.089,2.955,3.086c0.961,1.004,1.842,1.907,2.643,2.729c0.793,0.815,1.448,1.478,1.958,1.994
	c0.509,0.517,0.822,0.83,0.924,0.924c0.765,0.764,1.354,1.347,1.776,1.754c0.429,0.408,0.742,0.684,0.946,0.83
	c0.203,0.145,0.356,0.218,0.466,0.211c0.079,0.007,0.138-0.021,0.188-0.08c0.051-0.058,0.095-0.189,0.124-0.393
	c0.029-0.197,0.051-0.51,0.065-0.924c0.008-0.422,0.015-0.99,0.015-1.703l0.087-25.59c-0.007-0.866,0.029-1.572,0.103-2.104
	c0.072-0.539,0.226-0.946,0.458-1.223c0.226-0.277,0.583-0.466,1.056-0.561c0.262-0.065,0.474-0.102,0.641-0.117
	c0.167-0.014,0.298-0.021,0.407-0.014c0.153,0,0.27-0.029,0.356-0.087c0.081-0.059,0.124-0.131,0.124-0.219
	c0-0.131-0.072-0.211-0.211-0.254c-0.139-0.037-0.335-0.059-0.575-0.051c-0.597,0-1.149,0.014-1.652,0.036
	c-0.494,0.015-0.924,0.037-1.28,0.058c-0.356,0.022-0.611,0.037-0.779,0.037c-0.167,0-0.487-0.015-0.953-0.037
	c-0.466-0.021-1.012-0.043-1.646-0.058c-0.626-0.022-1.273-0.036-1.942-0.036c-0.263-0.008-0.474,0.014-0.634,0.051
	c-0.152,0.043-0.233,0.124-0.24,0.254c0,0.088,0.015,0.16,0.059,0.219c0.051,0.058,0.146,0.087,0.291,0.087
	c0.124,0,0.299,0.007,0.538,0.014c0.233,0.015,0.495,0.037,0.779,0.065c0.284,0.037,0.553,0.081,0.822,0.139
	c0.451,0.109,0.794,0.306,1.033,0.597c0.248,0.292,0.415,0.721,0.51,1.288c0.103,0.568,0.152,1.325,0.16,2.264l0.48,22.185
	c-0.356-0.372-0.896-0.954-1.615-1.74c-0.721-0.786-1.565-1.71-2.526-2.766c-0.96-1.056-1.987-2.176-3.071-3.363
	s-2.176-2.358-3.268-3.53c-1.354-1.449-2.671-2.868-3.967-4.25c-1.288-1.39-2.504-2.693-3.64-3.923
	c-1.135-1.222-2.154-2.321-3.05-3.29c-0.895-0.968-1.623-1.754-2.183-2.365c-0.561-0.612-0.91-0.998-1.049-1.15
	c-0.152-0.153-0.32-0.342-0.509-0.56c-0.197-0.211-0.379-0.408-0.568-0.575c-0.182-0.167-0.328-0.255-0.451-0.262
	c-0.117-0.007-0.211,0.059-0.277,0.189c-0.073,0.131-0.124,0.349-0.153,0.669c-0.036,0.32-0.051,0.764-0.051,1.325l-0.044,25.023
	c0.007,1.317-0.029,2.358-0.095,3.137c-0.072,0.779-0.196,1.347-0.393,1.718c-0.189,0.371-0.458,0.604-0.822,0.691
	c-0.342,0.109-0.677,0.175-1.012,0.211c-0.335,0.036-0.59,0.051-0.779,0.051c-0.109,0-0.196,0.021-0.254,0.065
	c-0.066,0.044-0.095,0.109-0.095,0.197c0,0.145,0.065,0.247,0.189,0.291c0.117,0.043,0.292,0.065,0.51,0.058
	c0.662,0,1.288-0.015,1.871-0.037c0.589-0.021,1.084-0.036,1.5-0.058c0.407-0.022,0.684-0.036,0.822-0.036
	c0.139,0,0.408,0.014,0.823,0.036c0.414,0.022,0.938,0.037,1.586,0.058c0.648,0.022,1.391,0.037,2.22,0.037
	c0.263,0,0.459-0.022,0.59-0.08c0.131-0.051,0.196-0.138,0.196-0.269c0-0.087-0.028-0.153-0.095-0.197
	c-0.058-0.044-0.146-0.065-0.254-0.065c-0.139,0-0.32-0.007-0.554-0.022c-0.24-0.007-0.502-0.036-0.786-0.073
	c-0.283-0.037-0.561-0.095-0.844-0.167c-0.394-0.109-0.706-0.327-0.946-0.669s-0.422-0.866-0.539-1.572
	c-0.116-0.699-0.189-1.637-0.218-2.824L251.866,40.419z"/>
<path fill="#000003" d="M296.278,46.926c0-1.354,0-2.511,0-3.464c0-0.954,0-1.754,0.008-2.395c0-0.647,0.007-1.186,0.015-1.616
	c0-0.422,0.015-0.793,0.021-1.099c0.015-0.299,0.029-0.59,0.044-0.859c0.029-0.757,0.167-1.339,0.4-1.74
	c0.232-0.393,0.641-0.647,1.215-0.75c0.255-0.043,0.466-0.08,0.626-0.102c0.168-0.022,0.32-0.029,0.467-0.029
	c0.087,0,0.167-0.022,0.239-0.065c0.065-0.044,0.103-0.109,0.109-0.197c0-0.131-0.058-0.218-0.167-0.276
	c-0.116-0.051-0.291-0.073-0.531-0.073c-0.335,0-0.735,0.007-1.194,0.021c-0.451,0.007-0.902,0.029-1.354,0.044
	s-0.837,0.029-1.157,0.043s-0.51,0.022-0.575,0.022s-0.255-0.007-0.574-0.022c-0.328-0.015-0.714-0.029-1.173-0.043
	c-0.458-0.015-0.924-0.037-1.397-0.044c-0.473-0.014-0.895-0.021-1.266-0.021c-0.24,0-0.415,0.021-0.531,0.073
	c-0.109,0.058-0.168,0.146-0.168,0.276c0.008,0.087,0.044,0.153,0.109,0.197c0.073,0.043,0.153,0.065,0.24,0.065
	c0.16,0,0.364,0.007,0.611,0.036c0.247,0.029,0.495,0.073,0.742,0.138c0.48,0.102,0.837,0.35,1.07,0.75
	c0.24,0.393,0.379,0.953,0.415,1.696c0.015,0.269,0.029,0.56,0.043,0.859c0.008,0.305,0.022,0.677,0.029,1.099
	c0,0.43,0.008,0.968,0.008,1.616c0.007,0.641,0.007,1.441,0.007,2.395c0,0.953,0,2.111,0,3.464v7.686c0,1.404,0,2.707-0.007,3.916
	c-0.008,1.201-0.029,2.278-0.059,3.217c-0.029,0.946-0.08,1.725-0.152,2.344c-0.052,0.422-0.124,0.808-0.212,1.15
	c-0.087,0.335-0.211,0.619-0.378,0.83c-0.16,0.218-0.386,0.364-0.677,0.422c-0.204,0.043-0.423,0.087-0.655,0.124
	c-0.232,0.029-0.451,0.051-0.655,0.051c-0.131,0-0.218,0.029-0.27,0.08c-0.058,0.051-0.08,0.116-0.08,0.182
	c0,0.131,0.059,0.218,0.168,0.269c0.116,0.058,0.291,0.08,0.531,0.08c0.342,0,0.735-0.007,1.193-0.022
	c0.451-0.015,0.91-0.029,1.354-0.043c0.451-0.015,0.836-0.029,1.157-0.044c0.319-0.014,0.509-0.021,0.574-0.021
	s0.263,0.007,0.597,0.021c0.328,0.015,0.758,0.029,1.274,0.044c0.51,0.014,1.069,0.029,1.681,0.043
	c0.604,0.015,1.216,0.022,1.82,0.022c0.24,0,0.414-0.029,0.531-0.095c0.108-0.058,0.167-0.146,0.167-0.254
	c0-0.066-0.021-0.131-0.08-0.182c-0.051-0.051-0.139-0.08-0.27-0.08c-0.138,0-0.32-0.007-0.546-0.022
	c-0.232-0.022-0.473-0.044-0.728-0.065c-0.247-0.029-0.48-0.058-0.691-0.087c-0.43-0.058-0.765-0.204-0.997-0.422
	c-0.233-0.211-0.394-0.495-0.495-0.83c-0.102-0.342-0.175-0.728-0.211-1.15c-0.073-0.619-0.124-1.397-0.153-2.344
	c-0.028-0.938-0.051-2.016-0.058-3.217c-0.008-1.208-0.008-2.511-0.008-3.916V46.926z"/>
<path fill="#000003" d="M312.917,39.589c-0.335-0.859-0.611-1.608-0.837-2.242c-0.219-0.626-0.335-1.092-0.342-1.383
	c-0.008-0.16,0.028-0.313,0.102-0.473c0.08-0.152,0.232-0.291,0.466-0.4c0.139-0.058,0.298-0.102,0.502-0.139
	c0.196-0.029,0.394-0.05,0.604-0.065c0.203-0.007,0.386-0.014,0.553-0.014c0.153,0,0.262-0.022,0.335-0.073
	c0.065-0.051,0.103-0.123,0.103-0.233c0-0.109-0.095-0.189-0.292-0.232c-0.196-0.051-0.495-0.073-0.888-0.073
	c-0.561,0-1.128,0.014-1.696,0.036c-0.561,0.015-1.055,0.037-1.484,0.058c-0.43,0.022-0.721,0.037-0.881,0.037
	c-0.138,0-0.378-0.007-0.721-0.022c-0.349-0.015-0.764-0.029-1.244-0.043s-0.99-0.037-1.536-0.044
	c-0.538-0.014-1.077-0.021-1.608-0.021c-0.349-0.008-0.626,0.014-0.829,0.051c-0.197,0.043-0.299,0.124-0.306,0.254
	c0,0.088,0.021,0.16,0.08,0.219c0.051,0.058,0.138,0.087,0.269,0.087c0.146-0.007,0.371,0,0.685,0.021
	c0.313,0.015,0.633,0.066,0.975,0.153c0.503,0.131,0.933,0.306,1.281,0.524c0.35,0.211,0.67,0.539,0.961,0.975
	s0.59,1.055,0.902,1.863l10.699,26.77c0.27,0.691,0.495,1.237,0.662,1.63c0.168,0.4,0.32,0.677,0.452,0.837
	c0.138,0.167,0.291,0.248,0.458,0.24c0.138,0.007,0.27-0.087,0.4-0.277c0.124-0.196,0.298-0.531,0.51-1.019
	c0.218-0.48,0.523-1.157,0.924-2.023c0.335-0.721,0.779-1.71,1.317-2.962c0.539-1.259,1.172-2.751,1.893-4.483
	c0.728-1.725,1.536-3.654,2.424-5.786c0.561-1.354,1.106-2.671,1.638-3.945s1.019-2.453,1.463-3.53
	c0.443-1.077,0.822-1.994,1.135-2.751c0.313-0.757,0.531-1.295,0.655-1.608c0.394-0.982,0.728-1.747,1.02-2.3
	c0.291-0.553,0.545-0.96,0.771-1.229c0.218-0.262,0.422-0.459,0.611-0.575c0.283-0.175,0.561-0.298,0.844-0.371
	c0.284-0.073,0.531-0.117,0.757-0.139c0.226-0.014,0.386-0.021,0.495-0.014c0.175,0,0.306-0.022,0.394-0.073
	c0.087-0.051,0.131-0.123,0.131-0.233c0-0.109-0.065-0.189-0.189-0.232c-0.131-0.051-0.313-0.073-0.554-0.073
	c-0.32,0-0.662,0.007-1.025,0.021c-0.364,0.007-0.714,0.029-1.056,0.044c-0.335,0.015-0.619,0.029-0.859,0.043
	s-0.393,0.022-0.466,0.022c-0.182,0-0.502-0.015-0.953-0.037c-0.451-0.021-0.968-0.043-1.558-0.058
	c-0.582-0.022-1.172-0.036-1.769-0.036c-0.342,0-0.59,0.021-0.742,0.073c-0.146,0.058-0.219,0.146-0.219,0.276
	c0.008,0.102,0.051,0.175,0.146,0.211c0.088,0.037,0.204,0.051,0.335,0.051c0.248-0.007,0.517,0,0.815,0.021
	c0.291,0.015,0.575,0.066,0.844,0.153c0.219,0.117,0.364,0.262,0.451,0.452c0.081,0.189,0.124,0.371,0.117,0.553
	c0,0.197-0.044,0.444-0.117,0.728c-0.072,0.291-0.167,0.597-0.276,0.932c-0.138,0.458-0.371,1.135-0.684,2.023
	c-0.32,0.888-0.699,1.936-1.143,3.129c-0.444,1.201-0.933,2.482-1.456,3.865c-0.524,1.376-1.07,2.781-1.623,4.214
	c-0.561,1.434-1.106,2.824-1.645,4.192c-0.546,1.361-1.056,2.627-1.529,3.792c-0.479,1.165-0.902,2.176-1.266,3.021L312.917,39.589z
	"/>
<path fill="#000003" d="M344.227,54.612c0,1.404,0,2.707-0.007,3.908c-0.007,1.208-0.029,2.286-0.059,3.224
	c-0.029,0.946-0.079,1.725-0.152,2.344c-0.051,0.422-0.124,0.808-0.211,1.143c-0.088,0.342-0.211,0.619-0.379,0.837
	c-0.16,0.218-0.386,0.364-0.677,0.422c-0.204,0.043-0.422,0.087-0.655,0.124c-0.232,0.029-0.451,0.051-0.655,0.051
	c-0.131,0-0.218,0.029-0.269,0.08c-0.059,0.051-0.08,0.116-0.08,0.182c0,0.131,0.058,0.218,0.167,0.269
	c0.116,0.058,0.291,0.08,0.531,0.08c0.335-0.007,0.735-0.022,1.187-0.044c0.451-0.029,0.902-0.043,1.347-0.043
	c0.466-0.022,0.866-0.036,1.187-0.036c0.32-0.007,0.51-0.007,0.561-0.007c0.319,0,0.757,0.007,1.31,0.029
	c0.554,0.022,1.252,0.058,2.097,0.102c0.852,0.022,1.885,0.051,3.1,0.08c1.224,0.029,2.649,0.051,4.28,0.051
	c0.561,0.007,0.997-0.007,1.303-0.043c0.306-0.037,0.531-0.131,0.685-0.292c0.152-0.16,0.276-0.429,0.371-0.8
	c0.043-0.189,0.094-0.444,0.146-0.757c0.051-0.32,0.102-0.663,0.146-1.026c0.051-0.371,0.102-0.728,0.139-1.077
	c0.043-0.342,0.072-0.641,0.102-0.888c0.021-0.248,0.036-0.415,0.036-0.488c0.007-0.16-0.007-0.305-0.029-0.444
	c-0.029-0.131-0.108-0.204-0.232-0.211c-0.109,0-0.189,0.044-0.248,0.146c-0.058,0.102-0.102,0.27-0.146,0.509
	c-0.146,0.888-0.371,1.572-0.67,2.067c-0.305,0.488-0.734,0.852-1.295,1.077c-0.386,0.16-0.837,0.269-1.339,0.335
	c-0.503,0.072-1.012,0.116-1.515,0.131c-0.502,0.015-0.953,0.015-1.339,0.015c-1.063,0.007-1.922-0.037-2.576-0.139
	c-0.663-0.094-1.165-0.269-1.514-0.523c-0.35-0.255-0.59-0.619-0.729-1.084c-0.139-0.473-0.226-1.085-0.247-1.834
	c-0.008-0.197-0.015-0.524-0.015-0.99c-0.008-0.458-0.008-0.997-0.008-1.608c0.008-0.612,0.008-1.23,0.008-1.863
	c0.007-0.633,0.007-1.216,0.007-1.747c0.008-0.532,0.008-0.954,0.008-1.259v-3.843c0-0.087,0.021-0.16,0.072-0.218
	c0.044-0.058,0.124-0.087,0.233-0.087c0.16,0,0.429,0,0.822,0.007c0.386,0.007,0.845,0.022,1.354,0.029
	c0.518,0.015,1.041,0.029,1.572,0.051c0.539,0.015,1.026,0.037,1.463,0.058c0.444,0.022,0.786,0.044,1.033,0.073
	c0.561,0.058,0.997,0.174,1.311,0.334c0.306,0.167,0.531,0.349,0.677,0.561c0.139,0.211,0.233,0.422,0.284,0.633
	c0.087,0.284,0.138,0.539,0.152,0.771c0.022,0.233,0.029,0.451,0.022,0.669c0,0.109,0.021,0.204,0.072,0.276
	c0.044,0.073,0.124,0.117,0.233,0.117c0.102-0.007,0.174-0.051,0.218-0.138s0.065-0.197,0.073-0.32
	c0.015-0.131,0.015-0.255,0.015-0.371c0-0.08,0.007-0.233,0.015-0.444c0.007-0.211,0.021-0.459,0.043-0.743
	c0.015-0.276,0.029-0.56,0.052-0.844c0.021-0.284,0.043-0.539,0.065-0.764c0.072-0.713,0.146-1.274,0.226-1.667
	c0.072-0.393,0.116-0.655,0.123-0.779c0-0.131-0.021-0.218-0.058-0.276c-0.044-0.051-0.095-0.073-0.16-0.073
	c-0.088,0-0.175,0.051-0.277,0.153c-0.102,0.102-0.226,0.24-0.378,0.415c-0.189,0.211-0.451,0.357-0.778,0.437
	c-0.328,0.08-0.75,0.138-1.274,0.175c-0.175,0.014-0.451,0.029-0.822,0.036c-0.379,0.007-0.808,0.022-1.296,0.022
	c-0.494,0.007-0.997,0.015-1.514,0.015c-0.524,0.007-1.019,0.007-1.484,0.014c-0.466,0-0.859,0-1.187,0c-0.328,0-0.539,0-0.641,0
	c-0.109,0-0.175-0.036-0.211-0.102c-0.036-0.073-0.051-0.182-0.051-0.335V36.401c0-0.153,0.021-0.262,0.065-0.335
	c0.043-0.073,0.109-0.102,0.196-0.102c0.109,0,0.35,0,0.735,0.008c0.386,0,0.837,0.007,1.368,0.014
	c0.523,0.007,1.056,0.015,1.594,0.022c0.531,0.015,1.012,0.022,1.427,0.037c0.415,0.014,0.698,0.029,0.858,0.051
	c0.779,0.087,1.368,0.204,1.783,0.342c0.415,0.146,0.714,0.313,0.903,0.502c0.188,0.196,0.327,0.408,0.414,0.641
	c0.073,0.175,0.124,0.371,0.168,0.567c0.036,0.204,0.058,0.4,0.072,0.575c0.015,0.182,0.022,0.32,0.022,0.429
	c0,0.175,0.021,0.313,0.08,0.415c0.051,0.102,0.138,0.153,0.269,0.153c0.088-0.007,0.153-0.058,0.204-0.16
	c0.044-0.102,0.08-0.204,0.102-0.32c0.022-0.138,0.044-0.342,0.065-0.611c0.022-0.269,0.044-0.553,0.059-0.866
	c0.022-0.306,0.036-0.589,0.051-0.844c0.022-0.254,0.037-0.444,0.044-0.56c0.072-0.604,0.146-1.056,0.226-1.369
	c0.072-0.313,0.116-0.539,0.124-0.684c0-0.109-0.015-0.204-0.036-0.277c-0.029-0.072-0.073-0.116-0.139-0.116
	c-0.109,0.007-0.211,0.037-0.306,0.095c-0.095,0.051-0.196,0.095-0.306,0.124c-0.183,0.044-0.43,0.087-0.757,0.124
	c-0.328,0.044-0.699,0.073-1.121,0.095c-0.153,0.007-0.437,0.015-0.852,0.015c-0.422,0.007-0.924,0.007-1.514,0.014
	c-0.597,0-1.223,0.007-1.893,0.007c-0.677,0-1.339,0-1.994,0c-0.655,0.007-1.259,0.007-1.806,0.007c-0.553,0-0.997,0-1.346,0
	c-0.35,0-0.546,0-0.597,0l-1.791-0.087c-0.487-0.022-1.004-0.036-1.558-0.036c-0.546-0.007-1.077-0.007-1.587-0.007
	c-0.239,0-0.414,0.021-0.531,0.073c-0.108,0.058-0.167,0.146-0.167,0.276c0.007,0.087,0.044,0.153,0.109,0.197
	c0.072,0.043,0.152,0.065,0.24,0.065c0.138,0,0.298,0,0.48,0.014c0.188,0.007,0.371,0.022,0.553,0.044
	c0.183,0.015,0.327,0.043,0.451,0.073c0.474,0.095,0.845,0.248,1.106,0.451c0.27,0.197,0.451,0.466,0.567,0.801
	c0.109,0.328,0.183,0.742,0.204,1.237c0.015,0.269,0.029,0.56,0.044,0.866c0.007,0.298,0.021,0.669,0.029,1.091
	c0,0.43,0.007,0.968,0.007,1.616c0.007,0.641,0.007,1.441,0.007,2.395c0,0.953,0,2.111,0,3.464V54.612z"/>
<path fill="#000003" d="M374.36,36.445c0-0.131,0.028-0.24,0.095-0.327c0.058-0.087,0.146-0.153,0.254-0.197
	c0.153-0.043,0.372-0.087,0.663-0.131c0.291-0.037,0.633-0.065,1.019-0.095c0.394-0.022,0.808-0.036,1.245-0.036
	c1.564,0.007,2.911,0.356,4.039,1.048c1.121,0.699,1.987,1.696,2.599,2.991c0.604,1.303,0.909,2.868,0.917,4.695
	c0,1.106-0.124,2.104-0.35,2.984c-0.232,0.88-0.546,1.638-0.946,2.271c-0.393,0.626-0.852,1.121-1.368,1.471
	c-0.51,0.342-1.048,0.567-1.623,0.677c-0.567,0.109-1.121,0.16-1.652,0.153c-0.647,0-1.281-0.029-1.899-0.095
	c-0.611-0.058-1.157-0.146-1.631-0.248c-0.479-0.109-0.829-0.226-1.055-0.356c-0.109-0.065-0.189-0.146-0.233-0.233
	c-0.051-0.087-0.072-0.182-0.072-0.291V36.445z M370.866,54.612c0,1.404,0,2.707-0.007,3.916c-0.008,1.201-0.029,2.278-0.059,3.217
	c-0.029,0.946-0.08,1.725-0.152,2.344c-0.051,0.422-0.124,0.808-0.211,1.15c-0.088,0.335-0.211,0.619-0.379,0.83
	c-0.16,0.218-0.386,0.364-0.677,0.422c-0.204,0.043-0.422,0.087-0.655,0.124c-0.232,0.029-0.451,0.051-0.655,0.051
	c-0.131,0-0.218,0.029-0.269,0.08c-0.059,0.051-0.08,0.116-0.08,0.182c0,0.131,0.058,0.218,0.167,0.269
	c0.116,0.058,0.291,0.08,0.531,0.08c0.343,0,0.735-0.007,1.187-0.022c0.459-0.015,0.902-0.029,1.339-0.043
	c0.444-0.015,0.809-0.029,1.106-0.044c0.291-0.014,0.451-0.021,0.474-0.021c0.065,0,0.262,0.007,0.597,0.021
	c0.327,0.015,0.757,0.029,1.273,0.044c0.51,0.014,1.07,0.029,1.682,0.043c0.604,0.015,1.215,0.022,1.819,0.022
	c0.24,0,0.415-0.029,0.531-0.095c0.109-0.058,0.167-0.146,0.167-0.254c0-0.066-0.021-0.131-0.072-0.182
	c-0.059-0.051-0.146-0.08-0.276-0.08c-0.139,0-0.32-0.007-0.546-0.022c-0.233-0.022-0.474-0.044-0.729-0.065
	c-0.247-0.029-0.479-0.058-0.691-0.087c-0.429-0.058-0.764-0.204-0.997-0.422c-0.232-0.211-0.393-0.495-0.494-0.83
	c-0.103-0.342-0.175-0.728-0.212-1.15c-0.072-0.619-0.123-1.397-0.152-2.344c-0.029-0.938-0.051-2.016-0.059-3.217
	c-0.007-1.208-0.007-2.511-0.007-3.916v-1.048c0-0.109,0.021-0.196,0.072-0.254c0.044-0.065,0.124-0.095,0.233-0.095l5.371,0.087
	c0.131,0,0.233,0.021,0.32,0.065c0.08,0.043,0.167,0.109,0.247,0.196c0.226,0.291,0.51,0.669,0.852,1.15
	c0.35,0.48,0.743,1.012,1.172,1.609c0.43,0.589,0.874,1.208,1.347,1.841c0.466,0.633,0.932,1.259,1.391,1.863
	c0.822,1.091,1.564,2.06,2.22,2.896c0.655,0.837,1.28,1.55,1.863,2.14c0.589,0.589,1.193,1.048,1.813,1.383
	c0.371,0.204,0.764,0.364,1.172,0.487c0.414,0.124,0.895,0.211,1.455,0.262s1.237,0.08,2.045,0.08h3.101
	c0.386,0,0.662-0.022,0.822-0.08c0.153-0.051,0.233-0.138,0.227-0.269c0-0.066-0.044-0.131-0.117-0.182
	c-0.072-0.051-0.167-0.08-0.276-0.08c-0.131,0-0.35,0-0.641-0.015s-0.647-0.051-1.063-0.117c-0.363-0.043-0.815-0.16-1.339-0.342
	c-0.531-0.175-1.129-0.48-1.806-0.917c-0.669-0.437-1.396-1.063-2.183-1.885c-1.26-1.361-2.643-2.991-4.149-4.884
	c-1.499-1.892-3.144-3.996-4.935-6.295c1.303-1.208,2.344-2.373,3.115-3.508c0.778-1.135,1.332-2.242,1.674-3.333
	c0.335-1.092,0.502-2.169,0.495-3.246c-0.007-0.757-0.109-1.448-0.32-2.089c-0.204-0.641-0.458-1.208-0.778-1.718
	c-0.313-0.502-0.641-0.939-0.982-1.295c-0.343-0.364-0.648-0.641-0.932-0.837c-0.779-0.546-1.609-0.961-2.49-1.237
	c-0.88-0.277-1.79-0.466-2.722-0.553c-0.932-0.095-1.855-0.139-2.78-0.131c-0.276,0-0.611,0.007-1.012,0.014
	c-0.393,0.007-0.808,0.015-1.244,0.029c-0.444,0.015-0.859,0.029-1.267,0.043c-0.4,0.007-0.75,0.022-1.041,0.029
	s-0.487,0.015-0.589,0.015c-0.066,0-0.255-0.007-0.59-0.022c-0.328-0.015-0.735-0.029-1.223-0.043
	c-0.488-0.015-1.005-0.037-1.551-0.044c-0.546-0.014-1.069-0.021-1.572-0.021c-0.24,0-0.414,0.021-0.531,0.073
	c-0.108,0.058-0.167,0.146-0.167,0.276c0.007,0.087,0.044,0.153,0.109,0.197c0.072,0.043,0.152,0.065,0.24,0.065
	c0.138,0,0.298,0,0.479,0.014c0.189,0.007,0.372,0.022,0.554,0.044c0.182,0.015,0.327,0.043,0.451,0.073
	c0.474,0.095,0.845,0.248,1.106,0.451c0.27,0.197,0.451,0.466,0.567,0.801c0.109,0.334,0.183,0.742,0.204,1.237
	c0.015,0.269,0.029,0.56,0.044,0.866c0.007,0.298,0.021,0.669,0.028,1.091c0,0.43,0.008,0.968,0.008,1.616
	c0.007,0.641,0.007,1.441,0.007,2.395c0,0.953,0,2.111,0,3.464V54.612z"/>
<path fill="#000003" d="M406.413,67.887c1.187,0.007,2.352-0.138,3.479-0.43c1.128-0.284,2.169-0.756,3.115-1.404
	c0.749-0.539,1.368-1.136,1.849-1.783c0.487-0.648,0.866-1.303,1.136-1.973c0.276-0.669,0.466-1.303,0.574-1.907
	c0.103-0.604,0.16-1.135,0.153-1.587c0.007-0.866-0.08-1.703-0.27-2.503c-0.189-0.808-0.517-1.609-0.982-2.417
	c-0.474-0.801-1.121-1.645-1.95-2.519c-0.838-0.873-1.893-1.812-3.174-2.824l-1.223-0.961c-1.041-0.815-1.906-1.536-2.599-2.176
	c-0.691-0.641-1.237-1.238-1.638-1.791c-0.4-0.546-0.684-1.092-0.852-1.638c-0.167-0.539-0.247-1.121-0.24-1.732
	c0.008-1.07,0.255-1.979,0.721-2.729c0.474-0.757,1.114-1.332,1.922-1.732c0.801-0.4,1.718-0.604,2.729-0.604
	c0.997,0.007,1.834,0.102,2.511,0.291c0.677,0.189,1.216,0.415,1.63,0.684c0.408,0.27,0.714,0.524,0.918,0.772
	c0.211,0.247,0.342,0.436,0.399,0.567c0.088,0.167,0.175,0.386,0.255,0.662c0.08,0.277,0.146,0.546,0.204,0.83
	c0.059,0.276,0.095,0.509,0.109,0.691c0.015,0.174,0.051,0.313,0.095,0.415c0.043,0.102,0.131,0.152,0.255,0.152
	c0.108,0,0.188-0.08,0.232-0.24c0.051-0.16,0.072-0.415,0.072-0.765c0.008-1.478,0.037-2.598,0.088-3.348
	c0.051-0.75,0.08-1.179,0.088-1.281c0.007-0.109-0.022-0.189-0.088-0.233c-0.059-0.051-0.175-0.073-0.35-0.073
	c-0.167,0-0.356-0.015-0.582-0.043c-0.226-0.029-0.539-0.087-0.946-0.175c-0.538-0.131-1.143-0.24-1.798-0.32
	c-0.662-0.073-1.419-0.117-2.264-0.117c-1.855,0.007-3.457,0.342-4.811,0.998c-1.347,0.655-2.388,1.572-3.115,2.751
	c-0.735,1.172-1.106,2.54-1.113,4.112c-0.008,0.735,0.072,1.47,0.24,2.198c0.16,0.728,0.451,1.47,0.866,2.227
	c0.407,0.757,0.989,1.55,1.731,2.387c0.743,0.83,1.689,1.718,2.839,2.664l1.965,1.616c0.939,0.771,1.726,1.47,2.373,2.11
	c0.641,0.641,1.157,1.259,1.55,1.849c0.387,0.597,0.67,1.208,0.845,1.834c0.175,0.633,0.262,1.317,0.255,2.067
	c0,0.706-0.131,1.405-0.386,2.089s-0.647,1.303-1.164,1.863c-0.518,0.561-1.165,1.004-1.951,1.339
	c-0.778,0.334-1.695,0.509-2.744,0.517c-0.735,0-1.455-0.08-2.154-0.24c-0.698-0.167-1.339-0.422-1.929-0.771
	c-0.59-0.356-1.092-0.815-1.507-1.383c-0.414-0.568-0.705-1.252-0.873-2.06c-0.065-0.313-0.102-0.604-0.116-0.888
	c-0.015-0.284-0.015-0.524-0.015-0.728c0-0.174-0.015-0.298-0.059-0.371c-0.036-0.073-0.123-0.109-0.247-0.109
	c-0.109,0-0.189,0.059-0.24,0.168c-0.051,0.116-0.088,0.291-0.109,0.531c-0.015,0.241-0.043,0.575-0.072,1.027
	c-0.037,0.444-0.065,0.975-0.095,1.586c-0.037,0.611-0.051,1.288-0.051,2.016c0,0.386,0.007,0.685,0.036,0.888
	c0.021,0.204,0.087,0.357,0.175,0.466c0.095,0.109,0.24,0.211,0.443,0.306c0.896,0.43,1.842,0.735,2.832,0.917
	C404.375,67.807,405.387,67.895,406.413,67.887"/>
<path fill="#000003" d="M431.917,46.926c0-1.354,0-2.511,0-3.464c0-0.954,0-1.754,0.007-2.395c0-0.647,0.007-1.186,0.015-1.616
	c0-0.422,0.015-0.793,0.021-1.099c0.015-0.299,0.029-0.59,0.044-0.859c0.029-0.757,0.168-1.339,0.4-1.74
	c0.232-0.393,0.641-0.647,1.216-0.75c0.254-0.043,0.465-0.08,0.625-0.102c0.168-0.022,0.32-0.029,0.467-0.029
	c0.087,0,0.167-0.022,0.239-0.065c0.066-0.044,0.103-0.109,0.109-0.197c0-0.131-0.058-0.218-0.167-0.276
	c-0.116-0.051-0.291-0.073-0.531-0.073c-0.335,0-0.735,0.007-1.194,0.021c-0.451,0.007-0.902,0.029-1.354,0.044
	s-0.837,0.029-1.157,0.043s-0.509,0.022-0.574,0.022c-0.066,0-0.255-0.007-0.575-0.022c-0.328-0.015-0.714-0.029-1.172-0.043
	c-0.459-0.015-0.925-0.037-1.397-0.044c-0.474-0.014-0.896-0.021-1.267-0.021c-0.24,0-0.415,0.021-0.531,0.073
	c-0.109,0.058-0.168,0.146-0.168,0.276c0.008,0.087,0.044,0.153,0.109,0.197c0.073,0.043,0.153,0.065,0.24,0.065
	c0.16,0,0.364,0.007,0.611,0.036c0.248,0.029,0.495,0.073,0.742,0.138c0.48,0.102,0.838,0.35,1.07,0.75
	c0.24,0.393,0.379,0.953,0.415,1.696c0.015,0.269,0.029,0.56,0.044,0.859c0.007,0.305,0.021,0.677,0.028,1.099
	c0,0.43,0.008,0.968,0.008,1.616c0.007,0.641,0.007,1.441,0.007,2.395c0,0.953,0,2.111,0,3.464v7.686c0,1.404,0,2.707-0.007,3.916
	c-0.008,1.201-0.029,2.278-0.059,3.217c-0.029,0.946-0.08,1.725-0.152,2.344c-0.052,0.422-0.124,0.808-0.212,1.15
	c-0.087,0.335-0.21,0.619-0.378,0.83c-0.16,0.218-0.386,0.364-0.677,0.422c-0.204,0.043-0.422,0.087-0.655,0.124
	c-0.232,0.029-0.451,0.051-0.655,0.051c-0.131,0-0.218,0.029-0.27,0.08c-0.058,0.051-0.079,0.116-0.079,0.182
	c0,0.131,0.058,0.218,0.167,0.269c0.116,0.058,0.291,0.08,0.531,0.08c0.342,0,0.735-0.007,1.193-0.022
	c0.451-0.015,0.91-0.029,1.354-0.043c0.451-0.015,0.837-0.029,1.157-0.044c0.32-0.014,0.509-0.021,0.575-0.021
	c0.065,0,0.262,0.007,0.597,0.021c0.327,0.015,0.757,0.029,1.273,0.044c0.51,0.014,1.07,0.029,1.682,0.043
	c0.604,0.015,1.215,0.022,1.819,0.022c0.24,0,0.415-0.029,0.531-0.095c0.108-0.058,0.167-0.146,0.167-0.254
	c0-0.066-0.021-0.131-0.08-0.182c-0.051-0.051-0.138-0.08-0.27-0.08c-0.138,0-0.32-0.007-0.546-0.022
	c-0.232-0.022-0.473-0.044-0.728-0.065c-0.247-0.029-0.48-0.058-0.691-0.087c-0.429-0.058-0.765-0.204-0.997-0.422
	c-0.232-0.211-0.394-0.495-0.495-0.83c-0.102-0.342-0.174-0.728-0.211-1.15c-0.073-0.619-0.123-1.397-0.152-2.344
	c-0.029-0.938-0.052-2.016-0.059-3.217c-0.007-1.208-0.007-2.511-0.007-3.916V46.926z"/>
<path fill="#000003" d="M456.764,36.14l5.502,0.087c1.041,0.022,1.907,0.095,2.592,0.226c0.684,0.131,1.223,0.298,1.615,0.517
	c0.4,0.211,0.685,0.458,0.859,0.742c0.174,0.284,0.276,0.589,0.306,0.917l0.043,0.48c0.022,0.298,0.059,0.495,0.109,0.597
	s0.131,0.153,0.24,0.146c0.088,0,0.16-0.043,0.219-0.138c0.058-0.095,0.087-0.233,0.087-0.43c0-0.131,0.008-0.386,0.021-0.771
	c0.015-0.378,0.029-0.822,0.044-1.317c0.015-0.502,0.029-0.997,0.044-1.478c0.015-0.488,0.021-0.903,0.021-1.237
	c0.008-0.138-0.007-0.255-0.028-0.364c-0.022-0.102-0.088-0.153-0.189-0.16c-0.088,0-0.233,0.029-0.43,0.072
	c-0.204,0.051-0.466,0.095-0.793,0.146c-0.35,0.065-0.779,0.116-1.289,0.16c-0.509,0.036-1.113,0.058-1.812,0.058h-16.377
	c-0.182,0-0.466-0.007-0.844-0.029c-0.378-0.015-0.801-0.044-1.267-0.073c-0.458-0.037-0.909-0.073-1.339-0.116
	c-0.386-0.036-0.706-0.095-0.954-0.175c-0.247-0.08-0.443-0.16-0.597-0.233c-0.146-0.073-0.269-0.109-0.371-0.117
	c-0.058,0.007-0.116,0.059-0.167,0.153c-0.059,0.102-0.109,0.219-0.153,0.342c-0.051,0.131-0.087,0.24-0.116,0.335
	c-0.021,0.08-0.065,0.269-0.131,0.56c-0.073,0.299-0.153,0.655-0.247,1.063c-0.088,0.408-0.183,0.815-0.27,1.23
	c-0.088,0.415-0.16,0.771-0.219,1.084c-0.058,0.306-0.095,0.51-0.095,0.604c0,0.131,0.021,0.226,0.059,0.291
	c0.044,0.065,0.095,0.102,0.16,0.102c0.087,0,0.167-0.029,0.232-0.087c0.073-0.065,0.139-0.182,0.204-0.35
	c0.059-0.145,0.139-0.313,0.24-0.517c0.102-0.196,0.27-0.473,0.502-0.837c0.226-0.349,0.517-0.619,0.866-0.822
	c0.35-0.197,0.815-0.342,1.383-0.43c0.575-0.087,1.311-0.138,2.205-0.146l6.463-0.087v18.472c0,1.404,0,2.707-0.007,3.916
	c-0.007,1.201-0.029,2.278-0.058,3.217c-0.029,0.946-0.08,1.725-0.153,2.344c-0.051,0.422-0.124,0.808-0.211,1.15
	c-0.088,0.335-0.211,0.619-0.379,0.83c-0.159,0.218-0.385,0.364-0.677,0.422c-0.203,0.043-0.422,0.087-0.654,0.124
	c-0.233,0.029-0.452,0.051-0.655,0.051c-0.131,0-0.219,0.029-0.27,0.08c-0.059,0.051-0.08,0.116-0.08,0.182
	c0,0.131,0.059,0.218,0.167,0.269c0.117,0.058,0.291,0.08,0.531,0.08c0.343,0,0.735-0.007,1.194-0.022
	c0.451-0.015,0.909-0.029,1.354-0.043c0.451-0.015,0.837-0.029,1.157-0.044c0.32-0.014,0.51-0.021,0.575-0.021
	s0.262,0.007,0.597,0.021c0.335,0.015,0.757,0.029,1.273,0.044c0.51,0.014,1.07,0.029,1.682,0.043
	c0.604,0.015,1.216,0.022,1.819,0.022c0.24,0,0.415-0.029,0.531-0.095c0.109-0.058,0.168-0.146,0.168-0.254
	c0-0.066-0.022-0.131-0.073-0.182c-0.058-0.051-0.146-0.08-0.276-0.08c-0.139,0-0.32-0.007-0.546-0.022
	c-0.233-0.022-0.473-0.044-0.729-0.065c-0.247-0.029-0.479-0.058-0.69-0.087c-0.43-0.058-0.765-0.204-0.998-0.422
	c-0.232-0.211-0.393-0.495-0.494-0.83c-0.103-0.342-0.175-0.728-0.211-1.15c-0.073-0.619-0.124-1.397-0.153-2.344
	c-0.029-0.938-0.051-2.016-0.059-3.217c-0.007-1.208-0.007-2.511-0.007-3.916V36.14z"/>
<path fill="#000003" d="M483.446,59.721c0,0.241,0,0.583-0.007,1.034c0,0.451-0.015,0.968-0.029,1.543
	c-0.021,0.575-0.051,1.172-0.095,1.791c-0.036,0.641-0.167,1.179-0.378,1.608c-0.219,0.43-0.539,0.699-0.976,0.793
	c-0.204,0.043-0.423,0.087-0.655,0.124c-0.232,0.029-0.451,0.051-0.655,0.051c-0.131,0-0.218,0.029-0.269,0.08
	c-0.059,0.051-0.08,0.116-0.08,0.182c0,0.131,0.058,0.218,0.167,0.269c0.116,0.058,0.291,0.08,0.531,0.08
	c0.342,0,0.735-0.007,1.193-0.022c0.451-0.015,0.91-0.029,1.354-0.043c0.451-0.015,0.837-0.029,1.157-0.044
	c0.32-0.014,0.509-0.021,0.575-0.021c0.065,0,0.262,0.007,0.596,0.021c0.335,0.015,0.758,0.029,1.274,0.044
	c0.51,0.014,1.069,0.029,1.681,0.043c0.604,0.015,1.216,0.022,1.82,0.022c0.24,0,0.414-0.029,0.531-0.095
	c0.109-0.058,0.167-0.146,0.167-0.254c0-0.066-0.021-0.131-0.072-0.182c-0.059-0.051-0.146-0.08-0.277-0.08
	c-0.138,0-0.319-0.007-0.545-0.022c-0.233-0.022-0.474-0.044-0.729-0.065c-0.247-0.029-0.48-0.058-0.691-0.087
	c-0.429-0.058-0.778-0.204-1.026-0.422c-0.254-0.211-0.437-0.495-0.553-0.83c-0.116-0.342-0.189-0.728-0.211-1.15
	c-0.044-0.619-0.073-1.215-0.095-1.791c-0.015-0.575-0.029-1.092-0.029-1.543c-0.007-0.451-0.007-0.793-0.007-1.034v-3.755
	c-0.008-0.48,0.007-0.954,0.021-1.426c0.021-0.466,0.08-0.946,0.175-1.427c0.087-0.488,0.247-0.99,0.458-1.514
	c0.117-0.277,0.328-0.699,0.634-1.267c0.306-0.575,0.677-1.237,1.113-2.001s0.902-1.58,1.412-2.438
	c0.51-0.859,1.019-1.718,1.543-2.577c0.517-0.851,1.019-1.659,1.492-2.416c0.473-0.757,0.902-1.412,1.273-1.965
	c0.371-0.561,0.662-0.968,0.874-1.223c0.313-0.393,0.589-0.721,0.829-0.99c0.24-0.262,0.48-0.495,0.713-0.691
	c0.226-0.197,0.488-0.378,0.771-0.546c0.357-0.219,0.721-0.371,1.085-0.473c0.364-0.095,0.677-0.138,0.925-0.138
	c0.174,0,0.313-0.037,0.414-0.095c0.103-0.058,0.153-0.146,0.153-0.255c-0.008-0.087-0.059-0.153-0.168-0.196
	c-0.108-0.044-0.239-0.065-0.399-0.065c-0.175,0-0.415,0-0.735,0.014c-0.313,0.007-0.662,0.015-1.041,0.029
	c-0.371,0.015-0.742,0.029-1.092,0.043c-0.356,0.007-0.655,0.022-0.902,0.029c-0.255,0.007-0.407,0.015-0.466,0.015
	c-0.124,0-0.343-0.015-0.647-0.037c-0.313-0.021-0.663-0.043-1.063-0.058c-0.393-0.022-0.786-0.036-1.172-0.036
	c-0.218,0-0.393,0.021-0.509,0.065c-0.124,0.043-0.189,0.109-0.189,0.196c0,0.102,0.065,0.189,0.182,0.248
	c0.117,0.065,0.277,0.124,0.474,0.189c0.262,0.065,0.444,0.211,0.546,0.429c0.109,0.218,0.16,0.48,0.152,0.793
	c0.008,0.284-0.051,0.611-0.16,0.982s-0.306,0.786-0.582,1.245c-0.131,0.211-0.342,0.567-0.633,1.07
	c-0.292,0.495-0.641,1.092-1.041,1.783s-0.83,1.434-1.281,2.227c-0.458,0.793-0.91,1.587-1.368,2.387
	c-0.451,0.801-0.881,1.558-1.281,2.278c-0.393,0.713-0.742,1.339-1.026,1.877c-0.291,0.539-0.494,0.946-0.618,1.216
	c-0.116-0.189-0.335-0.553-0.655-1.099c-0.32-0.539-0.706-1.193-1.157-1.972c-0.451-0.771-0.938-1.602-1.463-2.497
	c-0.517-0.888-1.033-1.776-1.55-2.671c-0.518-0.888-0.997-1.718-1.449-2.497c-0.443-0.771-0.829-1.427-1.135-1.965
	c-0.313-0.546-0.518-0.91-0.626-1.099c-0.175-0.327-0.313-0.626-0.415-0.902s-0.152-0.546-0.152-0.801
	c0-0.174,0.051-0.327,0.152-0.458c0.102-0.131,0.24-0.24,0.415-0.327c0.204-0.087,0.356-0.146,0.473-0.197
	c0.117-0.051,0.183-0.116,0.183-0.197c0.007-0.087-0.029-0.16-0.103-0.218c-0.08-0.058-0.232-0.087-0.466-0.087
	c-0.574,0-1.121,0.014-1.638,0.036c-0.517,0.015-0.96,0.037-1.324,0.058c-0.356,0.022-0.597,0.037-0.706,0.037
	c-0.051,0-0.204-0.007-0.451-0.015c-0.255-0.007-0.561-0.022-0.925-0.029c-0.363-0.014-0.742-0.029-1.128-0.043
	c-0.393-0.015-0.75-0.022-1.069-0.029c-0.328-0.014-0.575-0.014-0.75-0.014c-0.196,0-0.342,0.029-0.43,0.087
	c-0.095,0.059-0.138,0.131-0.138,0.218c0.007,0.11,0.051,0.182,0.138,0.233c0.088,0.051,0.183,0.073,0.299,0.073
	c0.138,0,0.306,0.029,0.517,0.08c0.211,0.059,0.43,0.139,0.67,0.241c0.24,0.109,0.473,0.232,0.691,0.378
	c0.399,0.262,0.858,0.662,1.368,1.208c0.517,0.539,1.048,1.215,1.601,2.023c0.227,0.327,0.524,0.786,0.896,1.375
	c0.364,0.583,0.786,1.245,1.245,1.987c0.458,0.743,0.938,1.514,1.434,2.322c0.487,0.801,0.976,1.594,1.441,2.366
	c0.465,0.771,0.895,1.478,1.28,2.125c0.386,0.648,0.706,1.179,0.946,1.602c0.248,0.429,0.394,0.691,0.444,0.8
	c0.189,0.408,0.364,0.823,0.517,1.23c0.146,0.407,0.27,0.873,0.356,1.397c0.087,0.531,0.131,1.179,0.131,1.958V59.721z"/>
<path fill="#000003" d="M216.335,98.612c0.007-2.394,0.335-4.482,0.968-6.279c0.633-1.798,1.528-3.289,2.67-4.49
	c1.15-1.2,2.496-2.096,4.046-2.699c1.542-0.597,3.231-0.895,5.064-0.895c1.39,0,2.729,0.226,4.031,0.669
	c1.295,0.444,2.503,1.106,3.624,1.979c1.113,0.88,2.096,1.965,2.932,3.26c0.844,1.303,1.499,2.802,1.972,4.504
	c0.466,1.702,0.706,3.602,0.713,5.697c-0.007,2.11-0.21,3.951-0.618,5.522c-0.4,1.565-0.946,2.904-1.63,4.01
	c-0.684,1.099-1.456,2.009-2.299,2.722c-0.852,0.713-1.732,1.267-2.634,1.659c-0.902,0.4-1.768,0.677-2.612,0.837
	c-0.836,0.16-1.593,0.232-2.256,0.226c-1.972-0.008-3.805-0.4-5.5-1.179c-1.688-0.786-3.166-1.906-4.432-3.369
	s-2.256-3.217-2.961-5.269C216.706,103.466,216.35,101.159,216.335,98.612 M212.188,99.835c0,1.316,0.138,2.648,0.422,4.002
	c0.284,1.346,0.72,2.656,1.31,3.937c0.589,1.281,1.339,2.474,2.255,3.587c0.91,1.113,1.994,2.089,3.246,2.933
	c1.251,0.837,2.685,1.499,4.3,1.972c1.608,0.48,3.413,0.721,5.407,0.728c2.11-0.007,4.06-0.313,5.85-0.916
	c1.797-0.604,3.405-1.456,4.824-2.555c1.426-1.099,2.641-2.387,3.646-3.878c1.004-1.484,1.768-3.114,2.299-4.897
	c0.531-1.775,0.793-3.646,0.8-5.609c-0.007-2.038-0.284-3.908-0.844-5.61c-0.553-1.703-1.338-3.217-2.364-4.548
	c-1.026-1.332-2.249-2.46-3.668-3.384c-1.418-0.924-2.99-1.623-4.722-2.104c-1.732-0.479-3.587-0.728-5.559-0.728
	c-2.008,0.008-3.828,0.27-5.458,0.771c-1.63,0.51-3.085,1.201-4.358,2.081c-1.273,0.881-2.372,1.893-3.304,3.027
	c-0.932,1.143-1.695,2.351-2.299,3.624c-0.604,1.272-1.055,2.554-1.346,3.849C212.333,97.404,212.188,98.648,212.188,99.835z"/>
<path fill="#000003" d="M255.802,103.721c0,1.404,0,2.707-0.007,3.914c-0.008,1.201-0.029,2.278-0.059,3.217
	c-0.029,0.945-0.08,1.725-0.152,2.343c-0.051,0.422-0.124,0.808-0.211,1.15c-0.088,0.334-0.212,0.618-0.379,0.829
	c-0.16,0.218-0.386,0.363-0.677,0.422c-0.203,0.044-0.422,0.087-0.655,0.124c-0.232,0.029-0.45,0.051-0.654,0.051
	c-0.131,0-0.219,0.028-0.27,0.08c-0.058,0.051-0.08,0.116-0.08,0.182c0,0.131,0.059,0.219,0.168,0.27
	c0.116,0.058,0.291,0.08,0.531,0.08c0.342,0,0.734-0.008,1.193-0.022c0.451-0.015,0.909-0.029,1.354-0.043
	c0.45-0.015,0.837-0.029,1.156-0.044c0.32-0.015,0.51-0.021,0.575-0.021s0.262,0.007,0.597,0.021
	c0.327,0.015,0.757,0.029,1.273,0.044c0.509,0.014,1.069,0.028,1.681,0.043c0.604,0.015,1.215,0.022,1.819,0.022
	c0.24,0,0.415-0.029,0.531-0.095c0.108-0.059,0.167-0.146,0.167-0.255c0-0.065-0.021-0.131-0.072-0.182
	c-0.059-0.052-0.146-0.08-0.276-0.08c-0.139,0-0.32-0.008-0.546-0.021c-0.233-0.022-0.474-0.044-0.729-0.066
	c-0.247-0.028-0.479-0.058-0.69-0.087c-0.43-0.059-0.765-0.204-0.997-0.422c-0.232-0.211-0.393-0.495-0.495-0.829
	c-0.102-0.343-0.175-0.729-0.211-1.15c-0.072-0.618-0.123-1.397-0.152-2.343c-0.029-0.938-0.052-2.016-0.059-3.217
	c-0.007-1.207-0.007-2.51-0.007-3.914v-3.711c0-0.153,0.021-0.255,0.072-0.313c0.044-0.058,0.124-0.087,0.233-0.08
	c0.159,0,0.443,0,0.865,0c0.423,0,0.902,0,1.463,0.008c0.553,0.007,1.113,0.007,1.688,0.021c0.567,0.008,1.084,0.021,1.542,0.036
	c0.459,0.015,0.808,0.036,1.033,0.065c0.451,0.065,0.83,0.183,1.143,0.35c0.313,0.167,0.561,0.364,0.742,0.582
	c0.189,0.219,0.313,0.43,0.386,0.641c0.087,0.269,0.146,0.538,0.182,0.814c0.037,0.284,0.065,0.531,0.08,0.757
	c0,0.109,0.022,0.204,0.073,0.276c0.051,0.073,0.123,0.117,0.232,0.117c0.146-0.008,0.233-0.103,0.27-0.27
	c0.029-0.168,0.044-0.356,0.036-0.561c0-0.08,0.008-0.24,0.015-0.466s0.022-0.487,0.044-0.785c0.015-0.299,0.028-0.597,0.051-0.896
	c0.021-0.291,0.043-0.553,0.065-0.778c0.072-0.713,0.146-1.273,0.226-1.667c0.072-0.393,0.116-0.646,0.124-0.778
	c0-0.108-0.015-0.189-0.044-0.255c-0.029-0.058-0.087-0.087-0.175-0.087c-0.087,0-0.167,0.044-0.24,0.131
	c-0.072,0.088-0.152,0.189-0.24,0.299c-0.188,0.276-0.443,0.466-0.756,0.574c-0.313,0.103-0.735,0.175-1.252,0.211
	c-0.306,0.022-0.611,0.037-0.932,0.037c-0.32,0.007-0.662,0.007-1.033,0.007l-5.588,0.044c-0.132,0-0.211-0.036-0.255-0.095
	c-0.037-0.065-0.059-0.167-0.051-0.299V85.646c0-0.175,0.029-0.298,0.095-0.371c0.065-0.072,0.167-0.109,0.298-0.109l6.724,0.132
	c0.567,0.021,1.055,0.102,1.47,0.254c0.407,0.146,0.742,0.328,0.989,0.531c0.255,0.211,0.422,0.407,0.51,0.604
	c0.131,0.298,0.232,0.597,0.298,0.909c0.066,0.313,0.095,0.561,0.095,0.742c0,0.16,0.022,0.284,0.073,0.378
	c0.043,0.095,0.124,0.146,0.232,0.146c0.109-0.008,0.189-0.059,0.24-0.16c0.051-0.095,0.088-0.204,0.109-0.32
	c0.021-0.146,0.044-0.356,0.065-0.626s0.044-0.561,0.058-0.873c0.022-0.313,0.037-0.597,0.052-0.852
	c0.021-0.255,0.036-0.444,0.043-0.561c0.073-0.604,0.146-1.055,0.226-1.367c0.073-0.313,0.116-0.539,0.124-0.685
	c0-0.109-0.021-0.204-0.065-0.276s-0.109-0.116-0.196-0.116c-0.088,0.007-0.175,0.036-0.27,0.094
	c-0.102,0.066-0.211,0.117-0.342,0.168c-0.196,0.08-0.466,0.138-0.793,0.16c-0.335,0.021-0.706,0.043-1.128,0.058
	c-0.153,0.008-0.437,0.015-0.866,0.015c-0.422,0.008-0.938,0.015-1.55,0.022c-0.604,0.007-1.259,0.007-1.957,0.015
	c-0.699,0-1.397,0.007-2.089,0.007c-0.698,0-1.346,0-1.942,0s-1.106,0-1.521,0c-0.407-0.007-0.684-0.007-0.814-0.015l-1.79-0.087
	c-0.487-0.021-1.004-0.037-1.558-0.037c-0.545-0.007-1.076-0.007-1.586-0.007c-0.24,0-0.415,0.022-0.531,0.072
	c-0.109,0.059-0.167,0.146-0.167,0.277c0.007,0.087,0.044,0.152,0.109,0.196c0.072,0.044,0.152,0.065,0.239,0.065
	c0.139-0.015,0.299-0.021,0.48-0.015c0.189,0,0.371,0.015,0.553,0.029c0.183,0.021,0.328,0.043,0.452,0.072
	c0.473,0.095,0.844,0.248,1.105,0.451c0.27,0.197,0.451,0.466,0.567,0.801c0.109,0.327,0.182,0.742,0.204,1.237
	c0.015,0.269,0.029,0.56,0.043,0.865c0.008,0.299,0.022,0.67,0.029,1.092c0,0.43,0.008,0.968,0.008,1.615
	c0.007,0.641,0.007,1.441,0.007,2.394c0,0.954,0,2.111,0,3.464V103.721z"/>
<path fill="#000003" d="M299.505,96.036c0-1.353,0-2.51,0-3.464c0-0.952,0-1.753,0.007-2.394c0-0.647,0.007-1.186,0.015-1.615
	c0-0.422,0.015-0.793,0.021-1.099c0.015-0.299,0.029-0.59,0.044-0.858c0.021-0.51,0.095-0.932,0.196-1.281
	c0.109-0.342,0.284-0.611,0.524-0.808c0.232-0.196,0.567-0.327,0.982-0.4c0.269-0.043,0.538-0.079,0.8-0.102
	c0.27-0.021,0.48-0.029,0.641-0.029c0.087,0,0.167-0.021,0.24-0.065c0.065-0.043,0.102-0.109,0.109-0.196
	c0-0.131-0.059-0.219-0.168-0.276c-0.116-0.051-0.291-0.073-0.531-0.073c-0.27,0-0.589,0.008-0.975,0.015
	c-0.379,0.008-0.771,0.015-1.187,0.029s-0.808,0.029-1.179,0.044c-0.371,0.007-0.677,0.021-0.924,0.028
	c-0.247,0.008-0.4,0.015-0.451,0.015c-0.065,0-0.255-0.007-0.59-0.021c-0.327-0.015-0.734-0.029-1.223-0.043
	c-0.486-0.016-1.004-0.037-1.549-0.044c-0.547-0.015-1.07-0.022-1.572-0.022c-0.24,0-0.415,0.022-0.531,0.073
	c-0.109,0.058-0.167,0.146-0.167,0.276c0.007,0.087,0.044,0.153,0.109,0.196c0.072,0.044,0.152,0.065,0.239,0.065
	c0.139,0,0.299,0,0.48,0.015c0.189,0.008,0.371,0.021,0.553,0.044c0.183,0.015,0.328,0.043,0.451,0.072
	c0.474,0.095,0.845,0.248,1.106,0.451c0.27,0.197,0.451,0.466,0.567,0.801c0.109,0.327,0.182,0.742,0.204,1.237
	c0.015,0.269,0.029,0.56,0.043,0.858c0.008,0.306,0.022,0.677,0.029,1.099c0,0.43,0.008,0.968,0.008,1.615
	c0.007,0.641,0.007,1.441,0.007,2.394c0,0.954,0,2.111,0,3.464v7.685c0,1.404,0,2.707-0.007,3.907
	c-0.008,1.208-0.029,2.285-0.059,3.224c-0.029,0.945-0.08,1.725-0.152,2.343c-0.051,0.422-0.124,0.808-0.211,1.143
	c-0.088,0.342-0.212,0.618-0.379,0.837c-0.16,0.218-0.386,0.363-0.677,0.422c-0.203,0.044-0.422,0.087-0.655,0.124
	c-0.232,0.029-0.45,0.051-0.654,0.051c-0.131,0-0.219,0.028-0.27,0.08c-0.058,0.051-0.08,0.116-0.08,0.182
	c0,0.131,0.059,0.219,0.168,0.27c0.116,0.058,0.291,0.08,0.531,0.08c0.334,0,0.72-0.008,1.164-0.029
	c0.437-0.015,0.881-0.036,1.324-0.059c0.443,0,0.829-0.007,1.157-0.021c0.327-0.015,0.538-0.021,0.633-0.021
	c0.626,0,1.295,0.007,2.016,0.028c0.713,0.022,1.528,0.059,2.438,0.103c0.909,0.021,1.95,0.051,3.129,0.08
	c1.186,0.028,2.554,0.051,4.118,0.051c0.575,0,1.026-0.015,1.361-0.044c0.342-0.029,0.597-0.087,0.764-0.167
	c0.175-0.088,0.306-0.204,0.393-0.356c0.088-0.16,0.16-0.364,0.233-0.611c0.087-0.328,0.175-0.706,0.247-1.15
	c0.08-0.437,0.153-0.88,0.211-1.324c0.059-0.451,0.109-0.844,0.146-1.186c0.029-0.342,0.052-0.575,0.052-0.706
	c0-0.24-0.016-0.407-0.052-0.51c-0.036-0.102-0.102-0.146-0.211-0.146c-0.131,0-0.218,0.052-0.276,0.153
	c-0.058,0.102-0.095,0.24-0.116,0.415c-0.044,0.283-0.124,0.574-0.226,0.895c-0.109,0.313-0.24,0.618-0.393,0.917
	c-0.153,0.306-0.328,0.567-0.518,0.808c-0.349,0.415-0.793,0.713-1.324,0.902c-0.523,0.189-1.12,0.306-1.79,0.35
	c-0.669,0.043-1.396,0.065-2.168,0.058c-1.12,0-2.03-0.036-2.714-0.102c-0.691-0.073-1.229-0.182-1.616-0.335
	c-0.385-0.146-0.69-0.335-0.909-0.567c-0.262-0.255-0.458-0.757-0.597-1.514c-0.138-0.757-0.24-1.834-0.291-3.216
	c-0.051-1.383-0.072-3.137-0.072-5.269V96.036z"/>
<path fill="#000003" d="M319.806,98.612c0.008-2.394,0.335-4.482,0.968-6.279c0.633-1.798,1.528-3.289,2.671-4.49
	c1.149-1.2,2.496-2.096,4.046-2.699c1.542-0.597,3.23-0.895,5.064-0.895c1.39,0,2.729,0.226,4.031,0.669
	c1.295,0.444,2.503,1.106,3.623,1.979c1.113,0.88,2.096,1.965,2.933,3.26c0.844,1.303,1.499,2.802,1.972,4.504
	c0.466,1.702,0.706,3.602,0.713,5.697c-0.007,2.11-0.211,3.951-0.618,5.522c-0.4,1.565-0.946,2.904-1.63,4.01
	c-0.684,1.099-1.455,2.009-2.299,2.722c-0.852,0.713-1.732,1.267-2.635,1.659c-0.902,0.4-1.769,0.677-2.612,0.837
	c-0.837,0.16-1.594,0.232-2.256,0.226c-1.972-0.008-3.805-0.4-5.5-1.179c-1.688-0.786-3.166-1.906-4.432-3.369
	c-1.267-1.463-2.256-3.217-2.962-5.269S319.821,101.159,319.806,98.612 M315.659,99.835c0,1.316,0.139,2.648,0.422,4.002
	c0.284,1.346,0.721,2.656,1.311,3.937c0.589,1.281,1.339,2.474,2.255,3.587c0.91,1.113,1.994,2.089,3.246,2.933
	c1.251,0.837,2.685,1.499,4.3,1.972c1.608,0.48,3.413,0.721,5.406,0.728c2.11-0.007,4.061-0.313,5.851-0.916
	c1.798-0.604,3.405-1.456,4.824-2.555c1.427-1.099,2.642-2.387,3.646-3.878c1.004-1.484,1.769-3.114,2.3-4.897
	c0.531-1.775,0.793-3.646,0.8-5.609c-0.007-2.038-0.283-3.908-0.844-5.61c-0.553-1.703-1.339-3.217-2.364-4.548
	c-1.026-1.332-2.249-2.46-3.668-3.384s-2.99-1.623-4.723-2.104c-1.731-0.479-3.587-0.728-5.559-0.728
	c-2.009,0.008-3.828,0.27-5.458,0.771c-1.63,0.51-3.085,1.201-4.358,2.081c-1.273,0.881-2.372,1.893-3.304,3.027
	c-0.932,1.143-1.695,2.351-2.299,3.624c-0.604,1.272-1.056,2.554-1.347,3.849C315.804,97.404,315.659,98.648,315.659,99.835z"/>
<path fill="#000003" d="M389.705,83.943c-0.037-0.415-0.103-0.714-0.182-0.902c-0.073-0.189-0.189-0.277-0.343-0.277
	c-0.146,0.008-0.276,0.073-0.378,0.204c-0.095,0.131-0.189,0.291-0.276,0.495l-12.836,27.418l-13.36-27.462
	c-0.108-0.24-0.21-0.407-0.313-0.51c-0.102-0.102-0.211-0.146-0.342-0.146s-0.24,0.073-0.32,0.212
	c-0.087,0.138-0.138,0.334-0.16,0.574l-3.144,28.466c-0.051,0.561-0.116,1.099-0.211,1.615c-0.087,0.524-0.247,0.961-0.479,1.324
	c-0.233,0.356-0.583,0.59-1.056,0.685c-0.32,0.065-0.575,0.102-0.771,0.116c-0.189,0.015-0.371,0.015-0.538,0.015
	c-0.116,0-0.211,0.021-0.299,0.058c-0.087,0.044-0.131,0.095-0.138,0.16c0.007,0.153,0.072,0.255,0.211,0.313
	c0.131,0.058,0.313,0.08,0.531,0.08c0.306,0,0.64-0.008,1.019-0.022c0.371-0.015,0.742-0.029,1.113-0.043
	c0.363-0.015,0.684-0.029,0.961-0.044c0.276-0.015,0.473-0.021,0.574-0.021c0.095,0,0.276,0.007,0.553,0.021
	c0.277,0.015,0.611,0.029,1.005,0.044c0.393,0.014,0.8,0.028,1.236,0.043s0.859,0.022,1.267,0.022c0.262,0,0.458-0.022,0.59-0.08
	c0.131-0.059,0.196-0.16,0.196-0.313c0-0.065-0.037-0.116-0.109-0.16c-0.065-0.036-0.146-0.058-0.24-0.058
	c-0.139,0-0.356-0.015-0.647-0.044c-0.299-0.029-0.633-0.087-1.012-0.175c-0.335-0.072-0.604-0.232-0.814-0.48
	c-0.204-0.247-0.313-0.538-0.32-0.873c0-0.371,0-0.749,0.007-1.128c0-0.378,0.015-0.749,0.037-1.099l1.746-20.258h0.174
	c0.073,0.175,0.226,0.517,0.452,1.019c0.226,0.502,0.502,1.114,0.836,1.827c0.328,0.713,0.677,1.484,1.063,2.299
	c0.379,0.815,0.757,1.63,1.128,2.445c0.378,0.808,0.735,1.557,1.056,2.248c0.319,0.691,0.597,1.267,0.814,1.732
	c0.219,0.458,0.356,0.749,0.415,0.873c0.044,0.08,0.167,0.335,0.378,0.757c0.204,0.415,0.473,0.945,0.794,1.586
	c0.319,0.641,0.662,1.339,1.04,2.081c0.371,0.749,0.742,1.491,1.113,2.227s0.713,1.404,1.026,2.016
	c0.313,0.611,0.56,1.099,0.756,1.463c0.277,0.517,0.488,0.924,0.655,1.223c0.16,0.29,0.291,0.494,0.4,0.61
	c0.102,0.124,0.204,0.183,0.299,0.175c0.123,0.008,0.239-0.051,0.342-0.175c0.108-0.123,0.239-0.349,0.407-0.684
	c0.16-0.335,0.393-0.822,0.691-1.455l10.696-22.703h0.131l2.096,22.528c0.029,0.27,0.044,0.517,0.044,0.749
	c0,0.233-0.022,0.423-0.059,0.568c-0.029,0.152-0.087,0.239-0.16,0.255c-0.109,0.021-0.182,0.058-0.232,0.102
	c-0.051,0.051-0.073,0.116-0.073,0.203c-0.007,0.109,0.065,0.197,0.232,0.27c0.175,0.065,0.503,0.124,0.99,0.167
	c0.335,0.029,0.764,0.052,1.288,0.08c0.523,0.022,1.091,0.044,1.702,0.065c0.604,0.022,1.201,0.044,1.783,0.059
	c0.582,0.021,1.099,0.036,1.55,0.044c0.443,0.007,0.771,0.015,0.968,0.015c0.27,0,0.487-0.037,0.655-0.103
	c0.167-0.065,0.254-0.16,0.262-0.291c0-0.087-0.029-0.146-0.095-0.175c-0.059-0.028-0.146-0.043-0.255-0.043
	c-0.226,0.007-0.597-0.008-1.105-0.051c-0.51-0.037-1.085-0.153-1.732-0.342c-0.466-0.161-0.844-0.415-1.135-0.758
	c-0.291-0.349-0.517-0.749-0.685-1.192c-0.16-0.451-0.283-0.91-0.356-1.376c-0.08-0.466-0.138-0.902-0.182-1.302L389.705,83.943z"/>
<path fill="#000003" d="M406.251,114.504c3.325-5.021,6.621-10.041,9.896-15.062c3.274-5.021,6.491-10.042,9.663-15.063
	c0.088-0.124,0.139-0.226,0.153-0.299c0.021-0.065,0.029-0.146,0.021-0.226c0.008-0.131-0.058-0.218-0.189-0.276
	c-0.131-0.051-0.363-0.073-0.684-0.073h-12.181c-0.444,0-0.99,0-1.652,0.008c-0.654,0-1.462-0.008-2.43-0.029
	c-0.968-0.015-2.14-0.051-3.515-0.109c-0.386-0.015-0.691-0.051-0.91-0.102c-0.226-0.044-0.399-0.095-0.538-0.138
	c-0.131-0.037-0.262-0.065-0.386-0.065c-0.124-0.008-0.219,0.058-0.284,0.182c-0.058,0.131-0.108,0.342-0.152,0.647
	c-0.044,0.27-0.102,0.618-0.175,1.055c-0.072,0.437-0.146,0.902-0.226,1.404c-0.08,0.503-0.16,0.982-0.226,1.455
	c-0.072,0.466-0.131,0.874-0.175,1.216c-0.051,0.335-0.072,0.561-0.072,0.677c0,0.175,0.015,0.313,0.051,0.415
	c0.036,0.102,0.102,0.152,0.211,0.152c0.109,0.007,0.204-0.044,0.291-0.146c0.08-0.109,0.146-0.32,0.189-0.641
	c0.044-0.342,0.16-0.728,0.356-1.156c0.189-0.43,0.466-0.845,0.815-1.252c0.356-0.407,0.793-0.757,1.316-1.041
	c0.48-0.247,1.063-0.429,1.754-0.56c0.698-0.124,1.44-0.211,2.227-0.255s1.557-0.065,2.307-0.059h9.474
	c-2.022,3.289-4.097,6.571-6.221,9.853c-2.118,3.282-4.265,6.563-6.433,9.838s-4.337,6.549-6.513,9.823
	c-0.255,0.379-0.422,0.655-0.502,0.822s-0.116,0.306-0.109,0.4c0,0.146,0.065,0.247,0.196,0.291c0.132,0.044,0.328,0.065,0.59,0.059
	c3.813,0.007,7.567,0.043,11.264,0.108s7.364,0.103,11.002,0.109c0.328,0.008,0.568-0.015,0.728-0.065
	c0.16-0.044,0.277-0.146,0.35-0.313c0.073-0.16,0.153-0.415,0.232-0.757c0.066-0.276,0.153-0.634,0.248-1.056
	s0.189-0.873,0.291-1.354c0.095-0.487,0.175-0.953,0.232-1.411c0.065-0.451,0.103-0.858,0.103-1.201
	c0-0.407-0.022-0.677-0.073-0.814c-0.059-0.139-0.146-0.196-0.276-0.189c-0.109,0-0.189,0.065-0.248,0.189
	c-0.058,0.116-0.102,0.291-0.145,0.509c-0.029,0.212-0.088,0.466-0.175,0.757c-0.088,0.291-0.196,0.583-0.313,0.873
	c-0.123,0.292-0.254,0.531-0.385,0.729c-0.219,0.327-0.495,0.625-0.822,0.888c-0.32,0.262-0.742,0.487-1.252,0.677
	c-0.51,0.182-1.157,0.327-1.943,0.422c-0.778,0.102-1.738,0.152-2.881,0.152H406.251z"/>
<path fill="#000003" d="M438.253,101.931c-0.066,0-0.116-0.022-0.146-0.073c-0.029-0.044-0.029-0.123,0.014-0.232l3.843-11.788
	c0.218-0.655,0.437-0.655,0.654,0l4.147,11.788c0.029,0.087,0.029,0.16,0.015,0.218c-0.021,0.059-0.08,0.088-0.188,0.088H438.253z
	 M432.141,111.579c-0.255,0.735-0.539,1.39-0.852,1.979c-0.313,0.582-0.698,1.062-1.149,1.426c-0.444,0.371-1.005,0.604-1.667,0.698
	c-0.188,0.022-0.4,0.044-0.647,0.059c-0.247,0.021-0.451,0.029-0.618,0.029c-0.109,0-0.204,0.021-0.276,0.065
	c-0.073,0.044-0.117,0.109-0.117,0.196c0,0.131,0.066,0.219,0.204,0.27c0.131,0.058,0.342,0.08,0.626,0.08
	c0.517,0,1.041-0.008,1.571-0.022c0.524-0.015,1.019-0.029,1.484-0.043c0.466-0.015,0.866-0.029,1.193-0.044
	c0.328-0.015,0.561-0.021,0.685-0.021c0.123,0,0.32,0.007,0.589,0.021c0.262,0.015,0.567,0.029,0.902,0.044
	c0.335,0.014,0.67,0.028,1.005,0.043c0.342,0.015,0.64,0.022,0.909,0.022c0.196,0,0.356-0.022,0.473-0.08
	c0.116-0.051,0.183-0.139,0.183-0.27c0-0.087-0.037-0.152-0.103-0.196c-0.072-0.044-0.182-0.065-0.334-0.065h-0.438
	c-0.254,0-0.509-0.044-0.756-0.131c-0.255-0.095-0.466-0.233-0.634-0.423c-0.175-0.182-0.262-0.422-0.269-0.713
	c0-0.4,0.05-0.844,0.159-1.346c0.103-0.502,0.255-1.026,0.451-1.579l2.62-7.728c0.043-0.109,0.102-0.196,0.167-0.255
	c0.073-0.065,0.16-0.095,0.27-0.095h9.387c0.109,0,0.189,0.021,0.247,0.065c0.059,0.044,0.102,0.109,0.146,0.196l4.061,10.74
	c0.124,0.35,0.146,0.626,0.065,0.822c-0.072,0.196-0.182,0.313-0.327,0.356c-0.088,0.022-0.16,0.059-0.219,0.103
	c-0.058,0.051-0.087,0.116-0.087,0.203c0,0.124,0.116,0.204,0.342,0.233c0.226,0.036,0.553,0.058,0.968,0.072
	c0.764,0.022,1.514,0.036,2.248,0.051c0.742,0.015,1.427,0.022,2.066,0.022c0.634,0.007,1.172,0.015,1.616,0.015
	c0.443,0,0.756,0,0.924,0c0.247,0,0.451-0.022,0.618-0.08c0.16-0.051,0.247-0.139,0.255-0.27c0-0.109-0.044-0.175-0.116-0.211
	c-0.08-0.036-0.189-0.051-0.32-0.051c-0.226,0-0.487-0.015-0.793-0.051c-0.306-0.037-0.619-0.103-0.953-0.211
	c-0.226-0.059-0.48-0.168-0.75-0.32c-0.276-0.16-0.567-0.408-0.88-0.742c-0.313-0.343-0.648-0.815-1.004-1.427
	c-0.357-0.604-0.729-1.39-1.121-2.357c-0.335-0.837-0.728-1.826-1.172-2.969c-0.451-1.143-0.931-2.38-1.448-3.711
	c-0.516-1.332-1.047-2.714-1.593-4.126c-0.553-1.419-1.092-2.83-1.623-4.228c-0.538-1.39-1.048-2.722-1.535-3.987
	c-0.48-1.259-0.917-2.401-1.31-3.428c-0.394-1.019-0.713-1.87-0.976-2.546c-0.262-0.67-0.429-1.114-0.517-1.332
	c-0.175-0.444-0.313-0.786-0.422-1.012s-0.211-0.378-0.291-0.451c-0.08-0.08-0.16-0.116-0.247-0.109
	c-0.088-0.007-0.168,0.037-0.248,0.124c-0.08,0.08-0.182,0.248-0.291,0.495c-0.108,0.247-0.247,0.611-0.422,1.084L432.141,111.579z"
	/>
</svg>
